<?xml version="1.0" encoding="utf-8"?>
<!-- Generator: Adobe Illustrator 22.1.0, SVG Export Plug-In . SVG Version: 6.00 Build 0)  -->
<svg version="1.1" id="Layer_2" xmlns="http://www.w3.org/2000/svg" xmlns:xlink="http://www.w3.org/1999/xlink" x="0px" y="0px"
	 viewBox="0 0 300 75" style="enable-background:new 0 0 300 75;" xml:space="preserve">
<style type="text/css">
	.st0{fill:#FFFFFF;}
	.st1{fill:#FFBB22;}
</style>
<path class="st0" d="M275.6,72.5c-0.1-0.5,0.3-0.7,0.5-0.8c6.8-1.9,7.4-6.2,7.4-10.7v-0.5c-1.6,0.3-5.4,0.7-7.3,0.7
	c-12.2,0-18.1-6.2-18.1-16.4V24.9c0-0.7,0.7-1.3,1.5-1.3h7.3c0.8,0,1.5,0.6,1.5,1.3v19.7c0,5.4,1.6,9.4,8.2,9.4
	c1.8,0,5.1-0.3,7.3-0.5l-0.5-28.6c0-0.7,0.7-1.3,1.6-1.3h7.2c0.8,0,1.6,0.6,1.6,1.3v29.4c0,10.9-5.2,18.2-17.4,18.6
	C276.3,72.9,275.7,73,275.6,72.5L275.6,72.5z"/>
<path class="st0" d="M243.2,60.2V11.7c0-0.7,0.7-1.3,1.5-1.3h7c0.8,0,1.4,0.6,1.4,1.3v48.5H243.2L243.2,60.2z"/>
<path class="st0" d="M227.2,53.4c-1.4,0.3-4.5,0.5-7.3,0.5c-6.5,0-8.2-4-8.2-9.5v-5c0-5.4,1.6-9.5,8.2-9.5c1.8,0,5.1,0.2,7.3,0.5
	V53.4L227.2,53.4z M237.1,11.7c0-0.7-0.7-1.3-1.5-1.3h-6.9c-0.8,0-1.5,0.6-1.5,1.3v11.6c-2.8-0.3-5.4-0.5-7.3-0.5
	c-12.2,0-18.1,6.2-18.1,16.4v5c0,10.2,5.9,16.4,18,16.4l0,0c4.8,0,6.3-0.4,10.9-1.3c1.8-0.4,3.8-0.4,5.3,0.5c0.3,0.2,1,0.2,1,0V11.9
	V11.7L237.1,11.7z"/>
<path class="st0" d="M188.2,30.4c-1.4-0.3-4.5-0.5-7.3-0.5c-6.5,0-8.2,4-8.2,9.5v5c0,5.4,1.6,9.5,8.2,9.5c2.7,0,5.8-0.2,7.3-0.5
	V30.4L188.2,30.4z M197.1,60c-1.8-1-3.4-0.8-5.2-0.5c-4.7,0.9-6.2,1.3-11,1.3c-12.2,0-18.1-6.2-18.1-16.4v-5
	c0-10.2,5.9-16.4,18.1-16.4c4.8,0,10.5,0.7,15.2,1.7c1.7,0.4,2,0.8,2,1.8v33.5C198.1,60.1,197.5,60.2,197.1,60L197.1,60z"/>
<path class="st0" d="M150.2,38.3c0-5.1-3.3-8.1-7.9-8.1c-4.7,0-8.1,2.9-8.1,8.1v0.3h16V38.3L150.2,38.3z M159,44.7h-24.8v0.2
	c0,3.9,1.8,8.5,9.3,8.5c5.6,0,10.5-0.4,13.8-0.7c0.1,0,0.1,0,0.1,0c0.8,0,1.2,0.3,1.2,1V58c0,1-0.2,1.5-1.6,1.7
	c-4.9,0.8-7.8,1.1-14.6,1.1c-7.5,0-18.1-3.5-18.1-16.4v-5c0-10.2,6.6-16.6,18.2-16.6s18,6.9,18,16.6v3.7
	C160.5,44.2,160.1,44.7,159,44.7L159,44.7z"/>
<path class="st0" d="M112.1,26c0-4.9-3.8-6.9-11.2-6.9c-1.6,0-5.4,0.1-6.6,0.3v14.6c1.2,0.1,5.4,0.2,6.6,0.2
	c7.7,0,11.2-1.8,11.2-7.5V26L112.1,26z M111.8,40.2c11.7,6.8,12.8,20.5,12.8,20.5h-10.3c-4.3-17.5-15-19.3-15-19.3s-2.9,0-4.6,0
	v18.8H83.9V18.9c0-1.9-0.3-4.2-1.5-5.7c-0.3-0.3-0.2-0.7-0.1-0.7c4.8-0.9,13.3-1.4,18.8-1.4c11.6,0,21.8,3.6,21.8,14.8v0.6
	c0,6.9-4,11.3-10.2,13.4L111.8,40.2L111.8,40.2z"/>
<path class="st1" d="M52.9,35.3H38.1c-1.4,0-2.5,1.1-2.5,2.5v20.4c0,1.4,1.1,2.5,2.5,2.5h20.4c1.4,0,2.5-1.1,2.5-2.5V58
	C60.3,50.9,56.8,42.6,52.9,35.3L52.9,35.3z"/>
<path class="st1" d="M29.8,6.2H9.4C8,6.2,6.9,7.3,6.9,8.7v20.4c0,1.4,1.1,2.5,2.5,2.5h20.4c1.4,0,2.5-1.1,2.5-2.5V8.7
	C32.3,7.3,31.2,6.2,29.8,6.2L29.8,6.2z"/>
<path class="st1" d="M58.4,6.2H38.1c-1.4,0-2.5,1.1-2.5,2.5v20.4c0,1.4,1.1,2.5,2.5,2.5h12.9c-2.6-4.6-5.3-8.5-7.3-11.3
	c-1.6-2.2-0.6-4.4,1.4-5c5.5-1.7,15.1-4.3,15-7c0-1.6-1.2-2-1.2-2S58.5,6.2,58.4,6.2L58.4,6.2z"/>
<path class="st1" d="M29.8,35.3H9.4c-1.4,0-2.5,1.1-2.5,2.5v20.4c0,1.4,1.1,2.5,2.5,2.5h20.4c1.4,0,2.5-1.1,2.5-2.5V37.8
	C32.3,36.4,31.2,35.3,29.8,35.3L29.8,35.3z"/>
</svg>
