<svg id="Layer_1" data-name="Layer 1" xmlns="http://www.w3.org/2000/svg" viewBox="0 0 39 52"><title>IanIllustration</title><g id="Layer_2" data-name="Layer 2"><g id="Layer_1-2" data-name="Layer 1-2"><path d="M0,0Z" transform="translate(0 -1)"/><path d="M0,0Z" transform="translate(0 -1)"/><path d="M0,0Z" transform="translate(0 -1)"/><path d="M0,0ZM0,0H0" transform="translate(0 -1)"/><path d="M0,0ZM0,0Z" transform="translate(0 -1)"/><path d="M0,0H0" transform="translate(0 -1)"/><path d="M0,0H0M0,0H0M0,0H0" transform="translate(0 -1)"/><path d="M0,0ZM0,0H0M0,0H0M0,0H0" transform="translate(0 -1)"/><path d="M0,0ZM0,0ZM0,0ZM0,0ZM0,0H0M0,0H0M0,0H0M0,0H0" transform="translate(0 -1)"/><path d="M0,0H0M0,0Z" transform="translate(0 -1)"/><path d="M0,0H0" transform="translate(0 -1)"/><path d="M0,0H0" transform="translate(0 -1)"/><path d="M0,0H0M0,0ZM0,0ZM0,0ZM0,0Z" transform="translate(0 -1)"/><path d="M0,0ZM0,0ZM0,0ZM0,0H0M0,0Z" transform="translate(0 -1)"/><path d="M0,0ZM0,0H0" transform="translate(0 -1)"/><path d="M0,0ZM0,0Z" transform="translate(0 -1)"/><path d="M0,0ZM0,0ZM0,0ZM0,0H0" transform="translate(0 -1)"/></g></g></svg>